<mxfile modified="2022-09-02T10:44:13.025Z" host="app.diagrams.net" agent="5.0 (Windows NT 10.0; Win64; x64) AppleWebKit/537.36 (KHTML, like Gecko) Chrome/105.0.0.0 Safari/537.36" etag="oLgbNW1t36ck7UKJ28tT" version="20.2.8" type="github">
  <diagram id="Ht1M8jgEwFfnCIfOTk4-" name="Page-1">
    <mxGraphModel dx="2893" dy="1500" grid="1" gridSize="10" guides="1" tooltips="1" connect="1" arrows="1" fold="1" page="1" pageScale="1" pageWidth="1654" pageHeight="1169" math="0" shadow="0">
      <root>
        <mxCell id="0" />
        <mxCell id="1" parent="0" />
        <mxCell id="upP_JpkpyjL7S7ulsonY-70" value="" style="edgeStyle=orthogonalEdgeStyle;rounded=0;orthogonalLoop=1;jettySize=auto;html=1;" edge="1" parent="1" source="UEzPUAAOIrF-is8g5C7q-110" target="UEzPUAAOIrF-is8g5C7q-114">
          <mxGeometry relative="1" as="geometry">
            <mxPoint x="116" y="725.5" as="targetPoint" />
          </mxGeometry>
        </mxCell>
        <mxCell id="UEzPUAAOIrF-is8g5C7q-110" value="Customer" style="outlineConnect=0;gradientColor=none;fontColor=#545B64;strokeColor=none;fillColor=#879196;dashed=0;verticalLabelPosition=bottom;verticalAlign=top;align=center;html=1;fontSize=12;fontStyle=0;aspect=fixed;shape=mxgraph.aws4.illustration_notification;pointerEvents=1;labelBackgroundColor=#ffffff;" parent="1" vertex="1">
          <mxGeometry x="66" y="816" width="100" height="81" as="geometry" />
        </mxCell>
        <mxCell id="upP_JpkpyjL7S7ulsonY-90" value="" style="edgeStyle=orthogonalEdgeStyle;rounded=0;orthogonalLoop=1;jettySize=auto;html=1;" edge="1" parent="1" source="UEzPUAAOIrF-is8g5C7q-114" target="upP_JpkpyjL7S7ulsonY-77">
          <mxGeometry relative="1" as="geometry">
            <mxPoint x="116" y="440" as="targetPoint" />
            <Array as="points">
              <mxPoint x="110" y="275" />
            </Array>
          </mxGeometry>
        </mxCell>
        <mxCell id="upP_JpkpyjL7S7ulsonY-92" value="" style="edgeStyle=orthogonalEdgeStyle;rounded=0;orthogonalLoop=1;jettySize=auto;html=1;" edge="1" parent="1" source="UEzPUAAOIrF-is8g5C7q-114" target="upP_JpkpyjL7S7ulsonY-76">
          <mxGeometry relative="1" as="geometry">
            <mxPoint x="116" y="431" as="targetPoint" />
            <Array as="points">
              <mxPoint x="130" y="424" />
            </Array>
          </mxGeometry>
        </mxCell>
        <mxCell id="UEzPUAAOIrF-is8g5C7q-114" value="Amazon API&lt;br&gt;Gateway&lt;br&gt;" style="outlineConnect=0;fontColor=#232F3E;gradientColor=#945DF2;gradientDirection=north;fillColor=#5A30B5;strokeColor=#ffffff;dashed=0;verticalLabelPosition=bottom;verticalAlign=top;align=center;html=1;fontSize=12;fontStyle=0;aspect=fixed;shape=mxgraph.aws4.resourceIcon;resIcon=mxgraph.aws4.api_gateway;labelBackgroundColor=#ffffff;" parent="1" vertex="1">
          <mxGeometry x="77" y="520" width="78" height="78" as="geometry" />
        </mxCell>
        <mxCell id="upP_JpkpyjL7S7ulsonY-38" value="" style="edgeStyle=orthogonalEdgeStyle;rounded=0;orthogonalLoop=1;jettySize=auto;html=1;" edge="1" parent="1" source="upP_JpkpyjL7S7ulsonY-2" target="upP_JpkpyjL7S7ulsonY-6">
          <mxGeometry relative="1" as="geometry" />
        </mxCell>
        <mxCell id="upP_JpkpyjL7S7ulsonY-2" value="SageMaker" style="sketch=0;points=[[0,0,0],[0.25,0,0],[0.5,0,0],[0.75,0,0],[1,0,0],[0,1,0],[0.25,1,0],[0.5,1,0],[0.75,1,0],[1,1,0],[0,0.25,0],[0,0.5,0],[0,0.75,0],[1,0.25,0],[1,0.5,0],[1,0.75,0]];outlineConnect=0;fontColor=#232F3E;gradientColor=#4AB29A;gradientDirection=north;fillColor=#116D5B;strokeColor=#ffffff;dashed=0;verticalLabelPosition=bottom;verticalAlign=top;align=center;html=1;fontSize=12;fontStyle=0;aspect=fixed;shape=mxgraph.aws4.resourceIcon;resIcon=mxgraph.aws4.sagemaker;" vertex="1" parent="1">
          <mxGeometry x="386" y="950" width="78" height="78" as="geometry" />
        </mxCell>
        <mxCell id="upP_JpkpyjL7S7ulsonY-6" value="SageMaker Endpoint" style="sketch=0;outlineConnect=0;fontColor=#232F3E;gradientColor=none;fillColor=#4D27AA;strokeColor=none;dashed=0;verticalLabelPosition=bottom;verticalAlign=top;align=center;html=1;fontSize=12;fontStyle=0;aspect=fixed;pointerEvents=1;shape=mxgraph.aws4.endpoint;" vertex="1" parent="1">
          <mxGeometry x="204" y="950" width="78" height="78" as="geometry" />
        </mxCell>
        <mxCell id="upP_JpkpyjL7S7ulsonY-11" value="Session Data" style="sketch=0;outlineConnect=0;fontColor=#232F3E;gradientColor=none;fillColor=#3F8624;strokeColor=none;dashed=0;verticalLabelPosition=bottom;verticalAlign=top;align=center;html=1;fontSize=12;fontStyle=0;aspect=fixed;pointerEvents=1;shape=mxgraph.aws4.bucket;" vertex="1" parent="1">
          <mxGeometry x="656" y="680" width="75" height="78" as="geometry" />
        </mxCell>
        <mxCell id="upP_JpkpyjL7S7ulsonY-12" value="Customer Data" style="sketch=0;outlineConnect=0;fontColor=#232F3E;gradientColor=none;fillColor=#3F8624;strokeColor=none;dashed=0;verticalLabelPosition=bottom;verticalAlign=top;align=center;html=1;fontSize=12;fontStyle=0;aspect=fixed;pointerEvents=1;shape=mxgraph.aws4.bucket;" vertex="1" parent="1">
          <mxGeometry x="795" y="680" width="75" height="78" as="geometry" />
        </mxCell>
        <mxCell id="upP_JpkpyjL7S7ulsonY-32" value="" style="edgeStyle=orthogonalEdgeStyle;rounded=0;orthogonalLoop=1;jettySize=auto;html=1;" edge="1" parent="1" source="upP_JpkpyjL7S7ulsonY-14" target="upP_JpkpyjL7S7ulsonY-26">
          <mxGeometry relative="1" as="geometry" />
        </mxCell>
        <mxCell id="upP_JpkpyjL7S7ulsonY-14" value="AWS Glue" style="outlineConnect=0;fontColor=#232F3E;gradientColor=#945DF2;gradientDirection=north;fillColor=#5A30B5;strokeColor=#ffffff;dashed=0;verticalLabelPosition=bottom;verticalAlign=top;align=center;html=1;fontSize=12;fontStyle=0;aspect=fixed;shape=mxgraph.aws4.resourceIcon;resIcon=mxgraph.aws4.glue;labelBackgroundColor=#ffffff;" vertex="1" parent="1">
          <mxGeometry x="717.0000000000002" y="819" width="78" height="78" as="geometry" />
        </mxCell>
        <mxCell id="upP_JpkpyjL7S7ulsonY-37" value="" style="edgeStyle=orthogonalEdgeStyle;rounded=0;orthogonalLoop=1;jettySize=auto;html=1;" edge="1" parent="1" source="upP_JpkpyjL7S7ulsonY-18" target="upP_JpkpyjL7S7ulsonY-2">
          <mxGeometry relative="1" as="geometry" />
        </mxCell>
        <mxCell id="upP_JpkpyjL7S7ulsonY-18" value="Traoning Dataset" style="sketch=0;outlineConnect=0;fontColor=#232F3E;gradientColor=none;fillColor=#3F8624;strokeColor=none;dashed=0;verticalLabelPosition=bottom;verticalAlign=top;align=center;html=1;fontSize=12;fontStyle=0;aspect=fixed;pointerEvents=1;shape=mxgraph.aws4.bucket;" vertex="1" parent="1">
          <mxGeometry x="566" y="950" width="75" height="78" as="geometry" />
        </mxCell>
        <mxCell id="upP_JpkpyjL7S7ulsonY-36" value="" style="edgeStyle=orthogonalEdgeStyle;rounded=0;orthogonalLoop=1;jettySize=auto;html=1;" edge="1" parent="1" source="upP_JpkpyjL7S7ulsonY-20" target="upP_JpkpyjL7S7ulsonY-11">
          <mxGeometry relative="1" as="geometry" />
        </mxCell>
        <mxCell id="upP_JpkpyjL7S7ulsonY-20" value="Data Pipeline" style="sketch=0;points=[[0,0,0],[0.25,0,0],[0.5,0,0],[0.75,0,0],[1,0,0],[0,1,0],[0.25,1,0],[0.5,1,0],[0.75,1,0],[1,1,0],[0,0.25,0],[0,0.5,0],[0,0.75,0],[1,0.25,0],[1,0.5,0],[1,0.75,0]];outlineConnect=0;fontColor=#232F3E;gradientColor=#945DF2;gradientDirection=north;fillColor=#5A30B5;strokeColor=#ffffff;dashed=0;verticalLabelPosition=bottom;verticalAlign=top;align=center;html=1;fontSize=12;fontStyle=0;aspect=fixed;shape=mxgraph.aws4.resourceIcon;resIcon=mxgraph.aws4.data_pipeline;" vertex="1" parent="1">
          <mxGeometry x="516" y="680" width="78" height="78" as="geometry" />
        </mxCell>
        <mxCell id="upP_JpkpyjL7S7ulsonY-33" value="" style="edgeStyle=none;rounded=0;orthogonalLoop=1;jettySize=auto;html=1;" edge="1" parent="1" source="upP_JpkpyjL7S7ulsonY-26" target="upP_JpkpyjL7S7ulsonY-18">
          <mxGeometry relative="1" as="geometry" />
        </mxCell>
        <mxCell id="upP_JpkpyjL7S7ulsonY-65" value="" style="edgeStyle=orthogonalEdgeStyle;rounded=0;orthogonalLoop=1;jettySize=auto;html=1;" edge="1" parent="1" source="upP_JpkpyjL7S7ulsonY-26" target="upP_JpkpyjL7S7ulsonY-63">
          <mxGeometry relative="1" as="geometry">
            <mxPoint x="860" y="989" as="targetPoint" />
          </mxGeometry>
        </mxCell>
        <mxCell id="upP_JpkpyjL7S7ulsonY-26" value="Databricks" style="sketch=0;aspect=fixed;html=1;points=[];align=center;image;fontSize=12;image=img/lib/mscae/Databricks.svg;" vertex="1" parent="1">
          <mxGeometry x="745" y="965" width="50" height="48" as="geometry" />
        </mxCell>
        <mxCell id="upP_JpkpyjL7S7ulsonY-27" value="" style="endArrow=none;html=1;rounded=0;" edge="1" parent="1" source="upP_JpkpyjL7S7ulsonY-11" target="upP_JpkpyjL7S7ulsonY-12">
          <mxGeometry width="50" height="50" relative="1" as="geometry">
            <mxPoint x="696" y="810" as="sourcePoint" />
            <mxPoint x="836" y="810" as="targetPoint" />
          </mxGeometry>
        </mxCell>
        <mxCell id="upP_JpkpyjL7S7ulsonY-28" value="" style="endArrow=classic;html=1;rounded=0;" edge="1" parent="1" target="upP_JpkpyjL7S7ulsonY-14">
          <mxGeometry width="50" height="50" relative="1" as="geometry">
            <mxPoint x="756" y="720" as="sourcePoint" />
            <mxPoint x="596" y="860" as="targetPoint" />
          </mxGeometry>
        </mxCell>
        <mxCell id="upP_JpkpyjL7S7ulsonY-39" value="" style="endArrow=classic;html=1;rounded=0;" edge="1" parent="1" source="upP_JpkpyjL7S7ulsonY-6" target="UEzPUAAOIrF-is8g5C7q-110">
          <mxGeometry width="50" height="50" relative="1" as="geometry">
            <mxPoint x="336" y="990" as="sourcePoint" />
            <mxPoint x="386" y="940" as="targetPoint" />
            <Array as="points">
              <mxPoint x="116" y="989" />
            </Array>
          </mxGeometry>
        </mxCell>
        <mxCell id="upP_JpkpyjL7S7ulsonY-119" value="" style="edgeStyle=orthogonalEdgeStyle;rounded=0;orthogonalLoop=1;jettySize=auto;html=1;fontColor=#000000;" edge="1" parent="1" source="upP_JpkpyjL7S7ulsonY-63" target="upP_JpkpyjL7S7ulsonY-118">
          <mxGeometry relative="1" as="geometry" />
        </mxCell>
        <mxCell id="upP_JpkpyjL7S7ulsonY-63" value="Redshift" style="outlineConnect=0;dashed=0;verticalLabelPosition=bottom;verticalAlign=top;align=center;html=1;shape=mxgraph.aws3.redshift;fillColor=#2E73B8;gradientColor=none;" vertex="1" parent="1">
          <mxGeometry x="1018" y="953" width="67.5" height="75" as="geometry" />
        </mxCell>
        <mxCell id="upP_JpkpyjL7S7ulsonY-83" value="" style="edgeStyle=orthogonalEdgeStyle;rounded=0;orthogonalLoop=1;jettySize=auto;html=1;" edge="1" parent="1" source="upP_JpkpyjL7S7ulsonY-76" target="upP_JpkpyjL7S7ulsonY-79">
          <mxGeometry relative="1" as="geometry" />
        </mxCell>
        <mxCell id="upP_JpkpyjL7S7ulsonY-76" value="Lambda" style="outlineConnect=0;fontColor=#232F3E;gradientColor=#F78E04;gradientDirection=north;fillColor=#D05C17;strokeColor=#ffffff;dashed=0;verticalLabelPosition=bottom;verticalAlign=top;align=center;html=1;fontSize=12;fontStyle=0;aspect=fixed;shape=mxgraph.aws4.resourceIcon;resIcon=mxgraph.aws4.lambda;labelBackgroundColor=#ffffff;spacingTop=3;" vertex="1" parent="1">
          <mxGeometry x="220" y="385.5" width="78" height="78" as="geometry" />
        </mxCell>
        <mxCell id="upP_JpkpyjL7S7ulsonY-82" value="" style="edgeStyle=orthogonalEdgeStyle;rounded=0;orthogonalLoop=1;jettySize=auto;html=1;" edge="1" parent="1" source="upP_JpkpyjL7S7ulsonY-77" target="upP_JpkpyjL7S7ulsonY-80">
          <mxGeometry relative="1" as="geometry" />
        </mxCell>
        <mxCell id="upP_JpkpyjL7S7ulsonY-77" value="Lambda" style="outlineConnect=0;fontColor=#232F3E;gradientColor=#F78E04;gradientDirection=north;fillColor=#D05C17;strokeColor=#ffffff;dashed=0;verticalLabelPosition=bottom;verticalAlign=top;align=center;html=1;fontSize=12;fontStyle=0;aspect=fixed;shape=mxgraph.aws4.resourceIcon;resIcon=mxgraph.aws4.lambda;labelBackgroundColor=#ffffff;spacingTop=3;" vertex="1" parent="1">
          <mxGeometry x="210" y="236" width="78" height="78" as="geometry" />
        </mxCell>
        <mxCell id="upP_JpkpyjL7S7ulsonY-79" value="&#xa;&lt;span style=&quot;color: rgb(35, 47, 62); font-family: Helvetica; font-size: 12px; font-style: normal; font-variant-ligatures: normal; font-variant-caps: normal; font-weight: 400; letter-spacing: normal; orphans: 2; text-align: center; text-indent: 0px; text-transform: none; widows: 2; word-spacing: 0px; -webkit-text-stroke-width: 0px; background-color: rgb(255, 255, 255); text-decoration-thickness: initial; text-decoration-style: initial; text-decoration-color: initial; float: none; display: inline !important;&quot;&gt;DynamoDB&lt;/span&gt;&#xa;&#xa;" style="outlineConnect=0;fontColor=#232F3E;gradientColor=#4D72F3;gradientDirection=north;fillColor=#3334B9;strokeColor=#ffffff;dashed=0;verticalLabelPosition=bottom;verticalAlign=top;align=center;html=1;fontSize=12;fontStyle=0;aspect=fixed;shape=mxgraph.aws4.resourceIcon;resIcon=mxgraph.aws4.dynamodb;labelBackgroundColor=#ffffff;spacingTop=5;" vertex="1" parent="1">
          <mxGeometry x="400.0000000000002" y="390" width="78" height="78" as="geometry" />
        </mxCell>
        <mxCell id="upP_JpkpyjL7S7ulsonY-80" value="DynamoDB" style="outlineConnect=0;fontColor=#232F3E;gradientColor=#4D72F3;gradientDirection=north;fillColor=#3334B9;strokeColor=#ffffff;dashed=0;verticalLabelPosition=bottom;verticalAlign=top;align=center;html=1;fontSize=12;fontStyle=0;aspect=fixed;shape=mxgraph.aws4.resourceIcon;resIcon=mxgraph.aws4.dynamodb;labelBackgroundColor=#ffffff;spacingTop=5;" vertex="1" parent="1">
          <mxGeometry x="400.0000000000002" y="236" width="78" height="78" as="geometry" />
        </mxCell>
        <mxCell id="upP_JpkpyjL7S7ulsonY-102" value="" style="edgeStyle=orthogonalEdgeStyle;rounded=0;orthogonalLoop=1;jettySize=auto;html=1;fontColor=#000000;entryX=0;entryY=0.5;entryDx=0;entryDy=0;" edge="1" parent="1" source="upP_JpkpyjL7S7ulsonY-93" target="upP_JpkpyjL7S7ulsonY-97">
          <mxGeometry relative="1" as="geometry">
            <mxPoint x="335" y="63" as="targetPoint" />
          </mxGeometry>
        </mxCell>
        <mxCell id="upP_JpkpyjL7S7ulsonY-104" value="" style="edgeStyle=orthogonalEdgeStyle;rounded=0;orthogonalLoop=1;jettySize=auto;html=1;fontColor=#000000;entryX=0.5;entryY=1;entryDx=0;entryDy=0;" edge="1" parent="1" source="upP_JpkpyjL7S7ulsonY-93" target="upP_JpkpyjL7S7ulsonY-98">
          <mxGeometry relative="1" as="geometry">
            <mxPoint x="805" y="273" as="targetPoint" />
          </mxGeometry>
        </mxCell>
        <mxCell id="upP_JpkpyjL7S7ulsonY-110" value="" style="edgeStyle=orthogonalEdgeStyle;rounded=0;orthogonalLoop=1;jettySize=auto;html=1;fontColor=#000000;entryX=0.5;entryY=0;entryDx=0;entryDy=0;entryPerimeter=0;" edge="1" parent="1" source="upP_JpkpyjL7S7ulsonY-93" target="upP_JpkpyjL7S7ulsonY-20">
          <mxGeometry relative="1" as="geometry">
            <mxPoint x="805" y="273" as="targetPoint" />
            <Array as="points">
              <mxPoint x="610" y="273" />
              <mxPoint x="610" y="509" />
              <mxPoint x="555" y="509" />
            </Array>
          </mxGeometry>
        </mxCell>
        <mxCell id="upP_JpkpyjL7S7ulsonY-93" value="" style="swimlane;startSize=0;" vertex="1" parent="1">
          <mxGeometry x="140" y="208" width="390" height="130" as="geometry" />
        </mxCell>
        <mxCell id="upP_JpkpyjL7S7ulsonY-88" value="Order/Shipping Microservice" style="text;html=1;align=center;verticalAlign=middle;resizable=0;points=[];autosize=1;strokeColor=none;fillColor=none;" vertex="1" parent="upP_JpkpyjL7S7ulsonY-93">
          <mxGeometry x="55" width="170" height="30" as="geometry" />
        </mxCell>
        <mxCell id="upP_JpkpyjL7S7ulsonY-114" value="" style="edgeStyle=orthogonalEdgeStyle;rounded=0;orthogonalLoop=1;jettySize=auto;html=1;fontColor=#000000;" edge="1" parent="1" source="upP_JpkpyjL7S7ulsonY-95">
          <mxGeometry relative="1" as="geometry">
            <mxPoint x="560" y="670" as="targetPoint" />
          </mxGeometry>
        </mxCell>
        <mxCell id="upP_JpkpyjL7S7ulsonY-95" value="" style="swimlane;startSize=0;" vertex="1" parent="1">
          <mxGeometry x="140" y="359.5" width="390" height="130" as="geometry" />
        </mxCell>
        <mxCell id="upP_JpkpyjL7S7ulsonY-85" value="Basket Microservice" style="text;html=1;align=center;verticalAlign=middle;resizable=0;points=[];autosize=1;strokeColor=none;fillColor=none;" vertex="1" parent="upP_JpkpyjL7S7ulsonY-95">
          <mxGeometry x="130" y="2" width="130" height="30" as="geometry" />
        </mxCell>
        <mxCell id="upP_JpkpyjL7S7ulsonY-97" value="Payment system" style="rounded=1;whiteSpace=wrap;html=1;fontColor=#000000;labelBackgroundColor=none;labelBorderColor=none;" vertex="1" parent="1">
          <mxGeometry x="543.5" y="30" width="120" height="60" as="geometry" />
        </mxCell>
        <mxCell id="upP_JpkpyjL7S7ulsonY-98" value="Shipping system" style="rounded=1;whiteSpace=wrap;html=1;fontColor=#000000;labelBackgroundColor=none;labelBorderColor=none;" vertex="1" parent="1">
          <mxGeometry x="663.5" y="118" width="120" height="60" as="geometry" />
        </mxCell>
        <mxCell id="upP_JpkpyjL7S7ulsonY-106" value="Emailing System" style="outlineConnect=0;dashed=0;verticalLabelPosition=bottom;verticalAlign=top;align=center;html=1;shape=mxgraph.aws3.ses;fillColor=#D9A741;gradientColor=none;labelBackgroundColor=none;labelBorderColor=none;fontColor=#000000;" vertex="1" parent="1">
          <mxGeometry x="280" y="40" width="79.5" height="93" as="geometry" />
        </mxCell>
        <mxCell id="upP_JpkpyjL7S7ulsonY-107" value="" style="edgeStyle=orthogonalEdgeStyle;rounded=0;orthogonalLoop=1;jettySize=auto;html=1;fontColor=#000000;" edge="1" parent="1" source="upP_JpkpyjL7S7ulsonY-88" target="upP_JpkpyjL7S7ulsonY-106">
          <mxGeometry relative="1" as="geometry" />
        </mxCell>
        <mxCell id="upP_JpkpyjL7S7ulsonY-117" value="" style="edgeStyle=orthogonalEdgeStyle;rounded=0;orthogonalLoop=1;jettySize=auto;html=1;fontColor=#000000;entryX=0;entryY=0.5;entryDx=0;entryDy=0;entryPerimeter=0;" edge="1" parent="1" target="upP_JpkpyjL7S7ulsonY-20">
          <mxGeometry relative="1" as="geometry">
            <mxPoint x="400" y="672.9999999999998" as="sourcePoint" />
            <mxPoint x="560" y="680" as="targetPoint" />
            <Array as="points">
              <mxPoint x="400" y="730" />
              <mxPoint x="458" y="730" />
              <mxPoint x="458" y="719" />
            </Array>
          </mxGeometry>
        </mxCell>
        <mxCell id="upP_JpkpyjL7S7ulsonY-118" value="Tableau Dasbords&lt;br&gt;" style="shape=image;html=1;verticalAlign=top;verticalLabelPosition=bottom;labelBackgroundColor=#ffffff;imageAspect=0;aspect=fixed;image=https://cdn1.iconfinder.com/data/icons/ionicons-fill-vol-2/512/logo-tableau-128.png;labelBorderColor=none;fontColor=#000000;" vertex="1" parent="1">
          <mxGeometry x="1190" y="925" width="128" height="128" as="geometry" />
        </mxCell>
        <mxCell id="upP_JpkpyjL7S7ulsonY-122" value="" style="swimlane;startSize=0;" vertex="1" parent="1">
          <mxGeometry x="170" y="660" width="230" height="180" as="geometry" />
        </mxCell>
        <mxCell id="upP_JpkpyjL7S7ulsonY-123" value="Game and account DATA" style="text;html=1;align=center;verticalAlign=middle;resizable=0;points=[];autosize=1;strokeColor=none;fillColor=none;" vertex="1" parent="upP_JpkpyjL7S7ulsonY-122">
          <mxGeometry x="60" y="10" width="160" height="30" as="geometry" />
        </mxCell>
        <mxCell id="upP_JpkpyjL7S7ulsonY-120" value="&#xa;&lt;span style=&quot;color: rgb(35, 47, 62); font-family: Helvetica; font-size: 12px; font-style: normal; font-variant-ligatures: normal; font-variant-caps: normal; font-weight: 400; letter-spacing: normal; orphans: 2; text-align: center; text-indent: 0px; text-transform: none; widows: 2; word-spacing: 0px; -webkit-text-stroke-width: 0px; background-color: rgb(255, 255, 255); text-decoration-thickness: initial; text-decoration-style: initial; text-decoration-color: initial; float: none; display: inline !important;&quot;&gt;DynamoDB&lt;/span&gt;&#xa;&#xa;" style="outlineConnect=0;fontColor=#232F3E;gradientColor=#4D72F3;gradientDirection=north;fillColor=#3334B9;strokeColor=#ffffff;dashed=0;verticalLabelPosition=bottom;verticalAlign=top;align=center;html=1;fontSize=12;fontStyle=0;aspect=fixed;shape=mxgraph.aws4.resourceIcon;resIcon=mxgraph.aws4.dynamodb;labelBackgroundColor=#ffffff;spacingTop=5;" vertex="1" parent="upP_JpkpyjL7S7ulsonY-122">
          <mxGeometry x="40.00000000000023" y="40" width="78" height="78" as="geometry" />
        </mxCell>
      </root>
    </mxGraphModel>
  </diagram>
</mxfile>
